<?xml version="1.0" encoding="UTF-8"?>
<svg xmlns="http://www.w3.org/2000/svg" xmlns:xlink="http://www.w3.org/1999/xlink" width="322.97pt" height="122.95pt" viewBox="0 0 322.97 122.95" version="1.1">
<defs>
<clipPath id="clip1">
  <path d="M 294 0 L 322.96875 0 L 322.96875 29 L 294 29 Z M 294 0 "/>
</clipPath>
<clipPath id="clip2">
  <path d="M 0 94 L 29 94 L 29 122.949219 L 0 122.949219 Z M 0 94 "/>
</clipPath>
</defs>
<g id="surface1">
<path style="fill:none;stroke-width:0.3985;stroke-linecap:butt;stroke-linejoin:miter;stroke:rgb(0%,0%,0%);stroke-opacity:1;stroke-miterlimit:10;" d="M -14.172687 -14.173437 L 14.174969 -14.173437 L 14.174969 14.174219 L -14.172687 14.174219 Z M -14.172687 -14.173437 " transform="matrix(1,0,0,-1,103.993,61.475)"/>
<path style="fill:none;stroke-width:0.3985;stroke-linecap:butt;stroke-linejoin:miter;stroke:rgb(0%,0%,0%);stroke-opacity:1;stroke-miterlimit:10;" d="M -14.171594 -14.173437 L 14.172156 -14.173437 L 14.172156 14.174219 L -14.171594 14.174219 Z M -14.171594 -14.173437 " transform="matrix(1,0,0,-1,132.738,61.475)"/>
<path style="fill:none;stroke-width:0.3985;stroke-linecap:butt;stroke-linejoin:miter;stroke:rgb(0%,0%,0%);stroke-opacity:1;stroke-miterlimit:10;" d="M -14.174406 -14.173437 L 14.17325 -14.173437 L 14.17325 14.174219 L -14.174406 14.174219 Z M -14.174406 -14.173437 " transform="matrix(1,0,0,-1,161.483,61.475)"/>
<path style="fill:none;stroke-width:0.3985;stroke-linecap:butt;stroke-linejoin:miter;stroke:rgb(0%,0%,0%);stroke-opacity:1;stroke-miterlimit:10;" d="M -14.173313 -14.173437 L 14.174344 -14.173437 L 14.174344 14.174219 L -14.173313 14.174219 Z M -14.173313 -14.173437 " transform="matrix(1,0,0,-1,190.228,61.475)"/>
<path style="fill:none;stroke-width:0.3985;stroke-linecap:butt;stroke-linejoin:miter;stroke:rgb(0%,0%,0%);stroke-opacity:1;stroke-miterlimit:10;" d="M -14.172219 -14.173437 L 14.171531 -14.173437 L 14.171531 14.174219 L -14.172219 14.174219 Z M -14.172219 -14.173437 " transform="matrix(1,0,0,-1,218.973,61.475)"/>
<g clip-path="url(#clip1)" clip-rule="nonzero">
<path style="fill:none;stroke-width:0.3985;stroke-linecap:butt;stroke-linejoin:miter;stroke:rgb(0%,0%,0%);stroke-opacity:1;stroke-miterlimit:10;" d="M 132.941781 32.928125 L 161.285531 32.928125 L 161.285531 61.275781 L 132.941781 61.275781 Z M 132.941781 32.928125 " transform="matrix(1,0,0,-1,161.484,61.475)"/>
</g>
<g clip-path="url(#clip2)" clip-rule="nonzero">
<path style="fill:none;stroke-width:0.3985;stroke-linecap:butt;stroke-linejoin:miter;stroke:rgb(0%,0%,0%);stroke-opacity:1;stroke-miterlimit:10;" d="M -161.288688 -61.275 L -132.941031 -61.275 L -132.941031 -32.927344 L -161.288688 -32.927344 Z M -161.288688 -61.275 " transform="matrix(1,0,0,-1,161.484,61.475)"/>
</g>
<path style="fill:none;stroke-width:0.3985;stroke-linecap:butt;stroke-linejoin:miter;stroke:rgb(0%,0%,0%);stroke-opacity:1;stroke-miterlimit:10;" d="M 132.742562 47.103906 C 104.394906 47.103906 104.394906 7.088281 79.633187 7.088281 " transform="matrix(1,0,0,-1,161.484,61.475)"/>
<path style=" stroke:none;fill-rule:nonzero;fill:rgb(0%,0%,0%);fill-opacity:1;" d="M 237.53125 54.386719 C 238.59375 54.585938 240.320313 55.183594 241.515625 55.882813 L 241.515625 52.894531 C 240.320313 53.589844 238.59375 54.1875 237.53125 54.386719 "/>
<path style="fill:none;stroke-width:0.3985;stroke-linecap:butt;stroke-linejoin:miter;stroke:rgb(0%,0%,0%);stroke-opacity:1;stroke-miterlimit:10;" d="M -76.0465 -7.0875 C -104.394156 -7.0875 -104.394156 -47.103125 -129.155875 -47.103125 " transform="matrix(1,0,0,-1,161.484,61.475)"/>
<path style=" stroke:none;fill-rule:nonzero;fill:rgb(0%,0%,0%);fill-opacity:1;" d="M 28.742188 108.578125 C 29.804688 108.777344 31.53125 109.375 32.726563 110.070313 L 32.726563 107.082031 C 31.53125 107.78125 29.804688 108.378906 28.742188 108.578125 "/>
</g>
</svg>
